<svg width="236" height="100" viewBox="0 0 236 100" fill="none" xmlns="http://www.w3.org/2000/svg">
<rect x="23" y="18.5" width="9" height="65.25" fill="white"/>
<rect x="34.25" y="11.75" width="9" height="65.25" fill="white"/>
<rect x="45.5" y="23" width="9" height="65.25" fill="white"/>
<rect x="56.75" y="18.5" width="9" height="65.25" fill="white"/>
<rect x="68" y="11.75" width="9" height="65.25" fill="white"/>
<path d="M115 45.08H110.4V64H106.76V45.08H103.92V42.08H106.76V40.52C106.76 38.0667 107.387 36.28 108.64 35.16C109.92 34.0133 111.96 33.44 114.76 33.44V36.48C113.16 36.48 112.027 36.8 111.36 37.44C110.72 38.0533 110.4 39.08 110.4 40.52V42.08H115V45.08ZM121.124 38.52C120.431 38.52 119.844 38.28 119.364 37.8C118.884 37.32 118.644 36.7333 118.644 36.04C118.644 35.3467 118.884 34.76 119.364 34.28C119.844 33.8 120.431 33.56 121.124 33.56C121.791 33.56 122.351 33.8 122.804 34.28C123.284 34.76 123.524 35.3467 123.524 36.04C123.524 36.7333 123.284 37.32 122.804 37.8C122.351 38.28 121.791 38.52 121.124 38.52ZM122.884 42.08V64H119.244V42.08H122.884ZM132.728 46.16C133.474 44.8533 134.568 43.7867 136.008 42.96C137.448 42.1333 139.088 41.72 140.928 41.72C142.901 41.72 144.674 42.1867 146.248 43.12C147.821 44.0533 149.061 45.3733 149.968 47.08C150.874 48.76 151.328 50.72 151.328 52.96C151.328 55.1733 150.874 57.1467 149.968 58.88C149.061 60.6133 147.808 61.96 146.208 62.92C144.634 63.88 142.874 64.36 140.928 64.36C139.034 64.36 137.368 63.9467 135.928 63.12C134.514 62.2933 133.448 61.24 132.728 59.96V64H129.088V34.4H132.728V46.16ZM147.608 52.96C147.608 51.3067 147.274 49.8667 146.608 48.64C145.941 47.4133 145.034 46.48 143.888 45.84C142.768 45.2 141.528 44.88 140.168 44.88C138.834 44.88 137.594 45.2133 136.448 45.88C135.328 46.52 134.421 47.4667 133.728 48.72C133.061 49.9467 132.728 51.3733 132.728 53C132.728 54.6533 133.061 56.1067 133.728 57.36C134.421 58.5867 135.328 59.5333 136.448 60.2C137.594 60.84 138.834 61.16 140.168 61.16C141.528 61.16 142.768 60.84 143.888 60.2C145.034 59.5333 145.941 58.5867 146.608 57.36C147.274 56.1067 147.608 54.64 147.608 52.96ZM176.119 52.2C176.119 52.8933 176.079 53.6267 175.999 54.4H158.479C158.612 56.56 159.346 58.2533 160.679 59.48C162.039 60.68 163.679 61.28 165.599 61.28C167.172 61.28 168.479 60.92 169.519 60.2C170.586 59.4533 171.332 58.4667 171.759 57.24H175.679C175.092 59.3467 173.919 61.0667 172.159 62.4C170.399 63.7067 168.212 64.36 165.599 64.36C163.519 64.36 161.652 63.8933 159.999 62.96C158.372 62.0267 157.092 60.7067 156.159 59C155.226 57.2667 154.759 55.2667 154.759 53C154.759 50.7333 155.212 48.7467 156.119 47.04C157.026 45.3333 158.292 44.0267 159.919 43.12C161.572 42.1867 163.466 41.72 165.599 41.72C167.679 41.72 169.519 42.1733 171.119 43.08C172.719 43.9867 173.946 45.24 174.799 46.84C175.679 48.4133 176.119 50.2 176.119 52.2ZM172.359 51.44C172.359 50.0533 172.052 48.8667 171.439 47.88C170.826 46.8667 169.986 46.1067 168.919 45.6C167.879 45.0667 166.719 44.8 165.439 44.8C163.599 44.8 162.026 45.3867 160.719 46.56C159.439 47.7333 158.706 49.36 158.519 51.44H172.359ZM184.564 45.64C185.204 44.3867 186.11 43.4133 187.284 42.72C188.484 42.0267 189.937 41.68 191.644 41.68V45.44H190.684C186.604 45.44 184.564 47.6533 184.564 52.08V64H180.924V42.08H184.564V45.64ZM203.606 64.36C201.926 64.36 200.419 64.08 199.086 63.52C197.752 62.9333 196.699 62.1333 195.926 61.12C195.152 60.08 194.726 58.8933 194.646 57.56H198.406C198.512 58.6533 199.019 59.5467 199.926 60.24C200.859 60.9333 202.072 61.28 203.566 61.28C204.952 61.28 206.046 60.9733 206.846 60.36C207.646 59.7467 208.046 58.9733 208.046 58.04C208.046 57.08 207.619 56.3733 206.766 55.92C205.912 55.44 204.592 54.9733 202.806 54.52C201.179 54.0933 199.846 53.6667 198.806 53.24C197.792 52.7867 196.912 52.1333 196.166 51.28C195.446 50.4 195.086 49.2533 195.086 47.84C195.086 46.72 195.419 45.6933 196.086 44.76C196.752 43.8267 197.699 43.0933 198.926 42.56C200.152 42 201.552 41.72 203.126 41.72C205.552 41.72 207.512 42.3333 209.006 43.56C210.499 44.7867 211.299 46.4667 211.406 48.6H207.766C207.686 47.4533 207.219 46.5333 206.366 45.84C205.539 45.1467 204.419 44.8 203.006 44.8C201.699 44.8 200.659 45.08 199.886 45.64C199.112 46.2 198.726 46.9333 198.726 47.84C198.726 48.56 198.952 49.16 199.406 49.64C199.886 50.0933 200.472 50.4667 201.166 50.76C201.886 51.0267 202.872 51.3333 204.126 51.68C205.699 52.1067 206.979 52.5333 207.966 52.96C208.952 53.36 209.792 53.9733 210.486 54.8C211.206 55.6267 211.579 56.7067 211.606 58.04C211.606 59.24 211.272 60.32 210.606 61.28C209.939 62.24 208.992 63 207.766 63.56C206.566 64.0933 205.179 64.36 203.606 64.36Z" fill="white"/>
</svg>
